<svg xmlns="http://www.w3.org/2000/svg" viewBox="0 0 64 64" role="img" aria-label="Java coffee cup">
  <defs>
    <linearGradient id="bg" x1="0" y1="0" x2="0" y2="1">
      <stop offset="0" stop-color="#153e75" />
      <stop offset="1" stop-color="#0f2e58" />
    </linearGradient>
    <linearGradient id="cup" x1="0" y1="0" x2="1" y2="1">
      <stop offset="0" stop-color="#f4f7fb" />
      <stop offset="1" stop-color="#dce6f3" />
    </linearGradient>
    <linearGradient id="coffee" x1="0" y1="0" x2="0" y2="1">
      <stop offset="0" stop-color="#8b5a2b" />
      <stop offset="1" stop-color="#5f3c1f" />
    </linearGradient>
  </defs>
  <rect width="64" height="64" rx="12" fill="url(#bg)" />
  <path d="M28 14c-3 3-1 6 1 8 2 2 2 4 0 6" fill="none" stroke="#9ed6ff" stroke-width="2.5" stroke-linecap="round" />
  <path d="M36 13c-2.5 2.5-1 5 .8 6.8 1.7 1.7 1.7 3.5 0 5.2" fill="none" stroke="#9ed6ff" stroke-width="2.5" stroke-linecap="round" />
  <ellipse cx="31" cy="38" rx="14" ry="5" fill="url(#coffee)" />
  <rect x="17" y="38" width="28" height="13" rx="6" fill="url(#cup)" />
  <path d="M45 40h5c3 0 5 2 5 4.5S53 49 50 49h-5" fill="none" stroke="#dce6f3" stroke-width="3" stroke-linecap="round" />
  <rect x="14" y="52" width="36" height="3.5" rx="1.75" fill="#6ca5d9" opacity="0.9" />
</svg>
